<svg xmlns="http://www.w3.org/2000/svg" viewBox="0 0 400 400" role="img" aria-labelledby="title desc">
  <title id="title">Marc Iglesias portrait placeholder</title>
  <desc id="desc">Placeholder silhouette to be replaced with Marc Iglesias portrait.</desc>
  <defs>
    <radialGradient id="gradient" cx="50%" cy="45%" r="60%">
      <stop offset="0%" stop-color="#4c1d95" stop-opacity="0.9" />
      <stop offset="65%" stop-color="#0f172a" stop-opacity="0.85" />
      <stop offset="100%" stop-color="#020617" />
    </radialGradient>
  </defs>
  <rect width="400" height="400" fill="url(#gradient)" />
  <circle cx="200" cy="150" r="80" fill="none" stroke="#a855f7" stroke-width="6" stroke-opacity="0.45" />
  <ellipse cx="200" cy="300" rx="130" ry="90" fill="#1e1b4b" fill-opacity="0.65" />
  <path
    d="M200 115c-34 0-62 28-62 62 0 23 12 43 31 54-34 15-60 42-60 82 0 3 0 6 0 9h182c0-3 0-6 0-9 0-40-26-67-60-82 19-11 31-31 31-54 0-34-28-62-62-62z"
    fill="#312e81"
    fill-opacity="0.7"
  />
  <text x="50%" y="370" text-anchor="middle" font-family="'Plus Jakarta Sans', sans-serif" font-size="20" fill="#a855f7">
    TODO reemplazar por retrato real en /public/assets/marc.jpg
  </text>
</svg>
